<svg height="200px" width="200px" version="1.1" id="Capa_1" xmlns="http://www.w3.org/2000/svg" xmlns:xlink="http://www.w3.org/1999/xlink" viewBox="0 0 102.405 102.405" xml:space="preserve" fill="#ffffff" stroke="#ffffff"><g id="SVGRepo_bgCarrier" stroke-width="0"></g><g id="SVGRepo_tracerCarrier" stroke-linecap="round" stroke-linejoin="round"></g><g id="SVGRepo_iconCarrier"> <g> <path style="fill:#ffffff;" d="M50.447,51.187c0.379-0.007,0.759,0.021,1.134,0.029c0.125,0,0.251-0.029,0.376-0.029H50.447z"></path> <path style="fill:#ffffff;" d="M52.047,62.9c0.054,0,0.097-0.014,0.147-0.014c0.072,0,0.132,0.014,0.2,0.014H52.047z M31.115,41.47 c0.05-0.007,0.086-0.068,0.143-0.082c3.368,12.19,12.089,21.305,20.947,21.502c8.07-0.365,17.969-9.319,21.269-21.441 c1.517,0.086,3.042-1.704,3.461-4.191c0.44-2.602-0.476-4.91-2.047-5.182c-0.1-0.014-0.204,0.05-0.301,0.05 C74.132,12.07,64.609,5.005,52.609,4.697C40.237,4.754,29.16,13.358,29.866,32.133c-0.118-0.007-0.229-0.075-0.344-0.057 c-1.571,0.272-2.487,2.588-2.047,5.182C27.897,39.838,29.526,41.731,31.115,41.47z M1.997,97.708 c0-5.551,1.077-10.185,2.992-14.083C1.979,81.281,0,77.656,0,73.551c0-7.072,5.751-12.819,12.827-12.819 c5.34,0,9.917,3.278,11.85,7.927c3.361-1.02,7-1.775,10.862-2.294l11.227,21.992l1.779-14.308l-2.777-2.273h6.145h6.725 l-2.781,2.273l1.779,14.308l11.234-21.992c19.523,2.623,33.537,10.991,33.537,31.344H1.997z M3.579,73.551 c0,2.788,1.267,5.264,3.228,6.961c1.618,1.406,3.708,2.287,6.02,2.287c5.103,0,9.248-4.144,9.248-9.248 c0-1.328-0.293-2.588-0.798-3.726c-1.439-3.242-4.681-5.515-8.45-5.515C7.734,64.31,3.579,68.458,3.579,73.551z M11.037,75.34 v0.426v5.243h1.789h1.789V75.34h5.669v-1.789v-1.789h-3.321h-2.348v-5.669h-1.789h-1.789v5.669H5.368v1.789v1.789 C5.368,75.34,11.037,75.34,11.037,75.34z"></path> </g> </g></svg>